<svg viewBox="0 0 152 132" style='fill: none;' ><path stroke-width='7px' d="M68.5882 128V78H36.2941H4V128H68.5882Z"/><path stroke-width='7px' d="M69.6471 128H136.645M136.645 128H148V117V101L69.6471 59V83H88.5098V94H104.471V106H121.882V117H136.645V128Z"/><path stroke-width='7px' d="M23.0588 47H48.4706"/><path stroke-width='7px' d="M23.0588 94H48.4706"/><path stroke-width='7px' d="M54.8235 78V61"/><path stroke-width='7px' d="M14.5882 79V62"/><path stroke-width='7px' d="M14.5882 128V113"/><path stroke-width='7px' d="M54.8235 128V113"/><path stroke-width='7px' d="M4 28V78H68.5882V28M4 28H36.2941H68.5882M4 28L36.2941 5L68.5882 28"/><path stroke-width='7px' d="M26.2353 78V63H43.1765V78"/><path stroke-width='7px' d="M27.2941 128V113H44.2353V128"/></svg>