<svg viewBox="0 0 512 512"><g><path d="m462.44 433.658v-271.228c0-4.142-3.358-7.5-7.5-7.5s-7.5 3.358-7.5 7.5v271.174h-12.9v-353.182h12.904v47.004c0 4.142 3.358 7.5 7.5 7.5s7.5-3.358 7.5-7.5v-49.052c5.528-2.945 9.303-8.763 9.303-15.451v-45.423c0-9.649-7.851-17.5-17.5-17.5h-26.51c-9.649 0-17.5 7.851-17.5 17.5v1.44h-45.483v-1.44c0-9.649-7.851-17.5-17.5-17.5h-14.761c-9.649 0-17.5 7.851-17.5 17.5v1.44h-117.987v-1.44c0-9.649-7.851-17.5-17.5-17.5h-14.761c-9.649 0-17.5 7.851-17.5 17.5v1.44h-45.483v-1.44c0-9.649-7.851-17.5-17.5-17.5h-26.51c-9.649 0-17.5 7.851-17.5 17.5v45.422c0 6.69 3.777 12.51 9.308 15.453v355.282c-9.159.548-16.449 8.152-16.449 17.447v50.396c0 5.79 4.71 10.5 10.5 10.5h54.793c5.79 0 10.5-4.71 10.5-10.5v-50.396c0-9.293-7.287-16.896-16.444-17.447v-53.237c0-4.142-3.358-7.5-7.5-7.5s-7.5 3.358-7.5 7.5v53.185h-12.9v-353.183h12.9v264.998c0 4.142 3.358 7.5 7.5 7.5s7.5-3.358 7.5-7.5v-267.047c5.528-2.945 9.303-8.763 9.303-15.451v-1.082h45.483v4.873c0 9.609 7.786 17.429 17.38 17.494v15.373c-8.995 3.117-15.474 11.669-15.474 21.711v5.763c0 10.042 6.479 18.594 15.474 21.71v16.632c-8.995 3.116-15.474 11.668-15.474 21.71v5.763c0 10.042 6.479 18.594 15.474 21.71v16.632c-8.995 3.116-15.474 11.668-15.474 21.71v5.763c0 10.042 6.479 18.594 15.474 21.711v16.632c-8.995 3.116-15.474 11.668-15.474 21.71v5.763c0 10.042 6.479 18.594 15.474 21.71v15.42c-9.171.536-16.474 8.145-16.474 17.448v13.166c0 9.649 7.851 17.5 17.5 17.5h180.695c9.649 0 17.5-7.851 17.5-17.5v-13.166c0-9.303-7.303-16.912-16.474-17.448v-15.42c8.995-3.116 15.474-11.668 15.474-21.71v-5.763c0-10.042-6.479-18.594-15.474-21.71v-16.632c8.995-3.117 15.474-11.669 15.474-21.711v-5.763c0-10.042-6.479-18.594-15.474-21.71v-16.632c8.995-3.116 15.474-11.668 15.474-21.71v-5.763c0-10.042-6.479-18.594-15.474-21.71v-16.632c8.995-3.116 15.474-11.668 15.474-21.71v-5.763c0-10.042-6.479-18.594-15.474-21.711v-15.374c9.594-.065 17.38-7.885 17.38-17.494v-4.872h45.483v1.083c0 6.688 3.775 12.506 9.303 15.451v355.285c-9.157.551-16.444 8.153-16.444 17.447v50.394c0 5.79 4.71 10.5 10.5 10.5h54.793c5.79 0 10.5-4.71 10.5-10.5v-50.396c.001-9.294-7.289-16.898-16.448-17.446zm-34.703-418.658h26.51c1.378 0 2.5 1.122 2.5 2.5v45.422c0 1.378-1.122 2.5-2.5 2.5h-26.51c-1.378 0-2.5-1.122-2.5-2.5v-8.524c0-.02.003-.039.003-.058s-.003-.038-.003-.058v-27.784c0-.02.003-.039.003-.058s-.003-.038-.003-.058v-8.882c0-1.378 1.122-2.5 2.5-2.5zm-95.363 84.58c-8.996 3.116-15.475 11.668-15.475 21.711v5.763c0 10.042 6.479 18.594 15.475 21.71v16.632c-8.996 3.116-15.475 11.668-15.475 21.71v5.763c0 10.042 6.479 18.594 15.475 21.71v16.632c-8.996 3.116-15.475 11.668-15.475 21.71v5.763c0 10.042 6.479 18.594 15.475 21.711v16.632c-8.996 3.116-15.475 11.668-15.475 21.71v5.763c0 10.042 6.479 18.594 15.475 21.71v15.368h-152.748v-15.368c8.996-3.116 15.475-11.668 15.475-21.71v-5.763c0-10.042-6.479-18.594-15.475-21.71v-16.632c8.996-3.116 15.475-11.668 15.475-21.711v-5.763c0-10.042-6.479-18.594-15.475-21.71v-16.632c8.996-3.116 15.475-11.668 15.475-21.71v-5.763c0-10.042-6.479-18.594-15.475-21.71v-16.632c8.996-3.116 15.475-11.668 15.475-21.71v-5.763c0-10.042-6.479-18.594-15.475-21.711v-15.374c9.594-.065 17.38-7.885 17.38-17.494v-4.872h117.987v4.873c0 9.609 7.786 17.429 17.38 17.494v15.373zm-17.38-65.64v12.9h-117.988v-12.9zm-259.742-16.44c0-1.378 1.122-2.5 2.5-2.5h26.51c1.378 0 2.5 1.122 2.5 2.5v8.882c0 .02-.003.039-.003.058s.003.038.003.058v27.784c0 .02-.003.039-.003.058s.003.038.003.058v8.524c0 1.37-1.109 2.484-2.476 2.498h-26.558c-1.367-.013-2.476-1.127-2.476-2.498zm38.652 433.604v45.896h-45.793v-45.896c0-1.378 1.122-2.5 2.5-2.5h40.793c1.379 0 2.5 1.122 2.5 2.5zm7.859-404.264v-12.9h45.483v12.9zm60.483 19.872v-12.285c0-.029.004-.058.004-.087s-.004-.058-.004-.087v-27.726c0-.029.004-.058.004-.087s-.004-.058-.004-.087v-8.853c0-1.378 1.122-2.5 2.5-2.5h14.761c1.378 0 2.5 1.122 2.5 2.5v49.212c0 1.378-1.122 2.5-2.5 2.5h-7.376-7.385c-1.379 0-2.5-1.121-2.5-2.5zm1.906 54.579c0-4.397 3.577-7.975 7.974-7.975s7.975 3.577 7.975 7.975v5.763c0 4.397-3.578 7.974-7.975 7.974s-7.974-3.577-7.974-7.974zm0 65.816c0-4.397 3.577-7.974 7.974-7.974s7.975 3.577 7.975 7.974v5.763c0 4.397-3.578 7.974-7.975 7.974s-7.974-3.577-7.974-7.974zm0 65.816c0-4.397 3.577-7.974 7.974-7.974s7.975 3.577 7.975 7.974v5.763c0 4.397-3.578 7.975-7.975 7.975s-7.974-3.577-7.974-7.975zm0 65.816c0-4.397 3.577-7.974 7.974-7.974s7.975 3.577 7.975 7.974v5.763c0 4.397-3.578 7.974-7.975 7.974s-7.974-3.577-7.974-7.974zm184.696 60.342v13.166c0 1.378-1.122 2.5-2.5 2.5h-180.696c-1.378 0-2.5-1.122-2.5-2.5v-13.166c0-1.378 1.122-2.5 2.5-2.5h180.695c1.379 0 2.501 1.122 2.501 2.5zm-1-54.579c0 4.397-3.577 7.974-7.974 7.974s-7.975-3.577-7.975-7.974v-5.763c0-4.397 3.578-7.974 7.975-7.974s7.974 3.577 7.974 7.974zm0-65.816c0 4.397-3.577 7.975-7.974 7.975s-7.975-3.577-7.975-7.975v-5.763c0-4.397 3.578-7.974 7.975-7.974s7.974 3.577 7.974 7.974zm0-65.816c0 4.397-3.577 7.974-7.974 7.974s-7.975-3.577-7.975-7.974v-5.763c0-4.397 3.578-7.974 7.975-7.974s7.974 3.577 7.974 7.974zm0-65.816c0 4.397-3.577 7.974-7.974 7.974s-7.975-3.577-7.975-7.974v-5.763c0-4.397 3.578-7.975 7.975-7.975s7.974 3.577 7.974 7.975zm-.594-57.842h-7.376-7.385c-1.378 0-2.5-1.121-2.5-2.5v-49.212c0-1.378 1.122-2.5 2.5-2.5h14.761c1.378 0 2.5 1.122 2.5 2.5v8.853c0 .029-.004.058-.004.087s.004.058.004.087v27.726c0 .029-.004.058-.004.087s.004.058.004.087v12.285c0 1.379-1.121 2.5-2.5 2.5zm17.5-22.372v-12.9h45.483v12.9zm99.135 450.16h-45.793v-45.896c0-1.378 1.122-2.5 2.5-2.5h40.793c1.378 0 2.5 1.122 2.5 2.5z" /></g> </svg>
