<svg width="517" height="478" viewBox="0 0 517 478" fill="none" xmlns="http://www.w3.org/2000/svg">
<path fill-rule="evenodd" clip-rule="evenodd" d="M517 0H0V478H517V0ZM204 176H313V192.221H262.844L290.884 220.312L313 198.156V221.498L290.884 243.654L258.895 211.607L226.116 244.05L204 222.685V198.947L225.326 220.312L253.366 192.221H204V176ZM225.326 250.776L204 229.016V251.567L225.326 274.118L258.895 243.654L290.094 276.097L313 253.545V230.598L290.094 251.567L258.895 219.125L225.326 250.776ZM233.62 278.47L258.895 253.545L283.38 278.47L258.895 303L233.62 278.47Z" fill="#D98E04"/>
</svg>
