<svg viewBox="0 0 512 512"><g><g><g><path d="M484.334,364.114v-194.28L431,163.168V66.925L307.851,97.316L81,68.959v50.458l-53.333-6.667v251.364H0v80.961h512    v-80.961H484.334z M401,105.003v54.415l-143.612-17.952C299.728,130.137,350.851,117.176,401,105.003z M111,102.943l118.882,14.86    l-49.132,14.083L111,123.168V102.943z M111,153.401l343.334,42.917v165.425H111V153.401z M57.667,146.734L81,149.651v212.092    H57.667V146.734z M482,415.076H30v-20.961h452V415.076z" /></g></g><g><g><path d="M387.333,294.738v-59.843h-0.002h-24.61v59.843h-33.569v-59.843h-24.61v77.345l-26.799-77.345h-21.859l-26.911,77.354    v-77.354H203.02l-16.102,34.922l-15.998-34.922h-26.067v81.682h24.61v-35.993l10.72,23.692h13.461l10.72-23.692v35.993h48.38    l4.655-15.404h18.725l4.766,15.404h142.127v-21.839H387.333z M261.514,283.766l5.265-17.548l5.024,17.548H261.514z" /></g></g></g> </svg>