
<svg viewBox="0 0 512 512" ><g><path d="M120,72h40a8,8,0,0,0,0-16H120a8,8,0,0,0,0,16Z"/><path d="M184,72h8a8,8,0,0,0,0-16h-8a8,8,0,0,0,0,16Z"/><path d="M464,464h-8V40a8,8,0,0,0-8-8H64a8,8,0,0,0-8,8V464H16a8,8,0,0,0,0,16H464a8,8,0,0,0,0-16ZM304,384h16a8,8,0,0,0,8-8V288a8,8,0,0,0-5.029-7.428L290.791,267.7a40,40,0,1,0-69.582,0l-32.18,12.872A8,8,0,0,0,184,288v88a8,8,0,0,0,8,8h16v80H104V96h88v16a8,8,0,0,0,8,8h16.805a40,40,0,0,0,78.39,0H312a8,8,0,0,0,8-8V96h88V464H304ZM232,248a24,24,0,1,1,24,24A24.028,24.028,0,0,1,232,248ZM208,104V96h96v8Zm70.624,16a24,24,0,0,1-45.248,0ZM408,80H104V48H408ZM72,464V48H88V464Zm192,0V392a8,8,0,0,0-16,0v72H224V328a8,8,0,0,0-16,0v40h-8V293.417l32.568-13.028a39.876,39.876,0,0,0,46.864,0L312,293.417V368h-8V328a8,8,0,0,0-16,0V464Zm160,0V48h16V464Z"/><path d="M496,464h-8a8,8,0,0,0,0,16h8a8,8,0,0,0,0-16Z"/></g></svg>
