<svg viewBox="0 0 512 512"><g><path d="m30 346c0 59.101 37.62 109.509 90 128.221v37.779h30v-30.844c4.927.551 9.93.844 15 .844h182c5.07 0 10.073-.293 15-.844v30.844h30v-37.779c52.38-18.712 90-69.12 90-128.221 0-8.271 6.729-15 15-15h15v-30h-60v-30h30v-30h-30v-166c0-41.355-33.645-75-75-75s-75 33.645-75 75v16h-30v30h90v-30h-30v-16c0-24.813 20.187-45 45-45s45 20.187 45 45v226h-422v30h15c8.271 0 15 6.729 15 15zm422 0c0 58.448-47.103 106-105 106h-182c-57.897 0-105-47.552-105-106 0-5.258-.915-10.305-2.58-15h92.58v91h152v-91.01h152.58c-1.665 4.705-2.58 9.752-2.58 15.01zm-272-15h92v61h-92z"/><path d="m332 151h30v30h-30z"/><path d="m272 151h30v30h-30z"/><path d="m302 211h30v30h-30z"/><path d="m242 211h30v30h-30z"/><path d="m362 211h30v30h-30z"/></g></svg>